<?xml version="1.0" encoding="UTF-8" standalone="no"?>
<!DOCTYPE svg PUBLIC "-//W3C//DTD SVG 1.1//EN" "http://www.w3.org/Graphics/SVG/1.1/DTD/svg11.dtd">
<svg width="100%" height="100%" viewBox="0 0 100 100" version="1.1" xmlns="http://www.w3.org/2000/svg" xmlns:xlink="http://www.w3.org/1999/xlink" xml:space="preserve" xmlns:serif="http://www.serif.com/" style="fill-rule:evenodd;clip-rule:evenodd;stroke-linejoin:round;stroke-miterlimit:2;">
    <path d="M100,22L100,78C100,90.142 90.142,100 78,100L22,100C9.858,100 0,90.142 0,78L0,22C0,9.858 9.858,0 22,0L78,0C90.142,0 100,9.858 100,22Z" style="fill:rgb(32,39,37);"/>
    <path d="M23.25,25L35.25,25L41.25,37L78.75,37L78.75,25L58.25,25L33.25,75L21.25,75L34.75,48L23.25,25Z" style="fill:white;fill-rule:nonzero;"/>
    <path d="M51.25,47L78.75,47L78.75,59L57.25,59L49.25,75L37.25,75L51.25,47Z" style="fill:white;fill-rule:nonzero;"/>
</svg>
